<svg xmlns="http://www.w3.org/2000/svg" viewBox="0 0 165 34"><defs><clipPath id="a" clipPathUnits="userSpaceOnUse"><path d="M0 792h612V0H0v792z"/></clipPath></defs><path fill="#FFF" d="M71.2 8.3v-.8c0-.2-.1-.4-.5-.4-.4-.1-1.3-.1-2.1-.1-2.2 0-3.6.8-3.6 3.3v14.1c0 .3.2.5.5.5h1.1c.3 0 .5-.2.5-.5V13.5h3.7c.3 0 .4-.2.4-.4v-.8c0-.3-.2-.4-.4-.4H67v-1.6c0-1.4.3-1.6 1.6-1.6h2.1c.3-.1.5-.2.5-.4zM78.7 13.1V12c0-.3-.2-.4-.5-.4-2 0-3.6.1-4.9.7-.3.1-.4.3-.4.5v11.4c0 .3.2.5.4.5h1.2c.3 0 .4-.2.4-.5V13.7c.9-.2 1.7-.2 3.3-.2.5 0 .5-.1.5-.4zM89 23.9V12.8c0-.3-.1-.4-.5-.5-1.3-.3-2.9-.5-4.4-.5-3.5 0-5.2 2.3-5.2 5.8v1.6c0 3.5 1.6 5.8 5.2 5.8 1.4 0 3.1-.2 4.4-.5.4-.2.5-.3.5-.6zm-2.1-.9c-.7.1-1.8.2-2.8.2-2.3 0-3.1-1.6-3.1-4.1v-1.6c0-2.5.7-4.1 3.1-4.1 1 0 2.1.1 2.8.2V23zM106.1 24.3v-8.5c0-2.4-1.4-4.1-4.2-4.1h-.5c-1.4 0-2.4.2-3.1.8-.7-.7-1.7-.8-3.1-.8h-.5c-2.8 0-4.2 1.7-4.2 4.1v8.5c0 .3.2.5.4.5h1.2c.3 0 .4-.2.4-.5v-8.5c0-2 .9-2.3 2.1-2.3h.5c1.5 0 2 .3 2 1.6v9.2c0 .3.2.5.4.5h1.2c.3 0 .4-.2.4-.5v-9.2c0-1.3.5-1.6 2-1.6h.5c1.3 0 2.1.3 2.1 2.3v8.5c0 .3.2.5.4.5h1.2c.7 0 .8-.2.8-.5zM117.7 18.5v-1.3c0-3.3-1.8-5.5-5.2-5.5-3.4 0-5.3 2.1-5.3 5.5v2.1c0 4.4 2.6 5.7 5.4 5.7 1.6 0 2.9-.1 4.2-.4.4-.1.5-.2.5-.5v-.8c0-.2-.2-.3-.4-.3h-.1c-1.1.2-2.8.3-4.2.3-2.2 0-3.3-1-3.3-3.8V19h7.9c.3 0 .5-.2.5-.5zm-2.1-1.1h-6.3v-.2c0-2.5 1.1-3.7 3.2-3.7s3.1 1 3.1 3.7v.2zM134.9 19.7v-7.4c0-.3-.2-.5-.5-.5h-1.1c-.3 0-.5.2-.5.5v7.4c0 2.6-1 3.5-2.9 3.5-.6 0-1.2-.1-1.9-.3V12.3c0-.3-.2-.5-.5-.5h-1.2c-.3 0-.5.2-.5.5v10.6c-.7.2-1.3.3-1.9.3-2 0-2.9-.9-2.9-3.5v-7.4c0-.3-.2-.5-.5-.5h-1.1c-.3 0-.5.2-.5.5v7.4c0 4.2 2.3 5.3 4.8 5.3 1.2 0 2.2-.2 3.1-.6 1 .4 1.9.6 3.1.6 2.7 0 5-1.1 5-5.3zM147 19.2v-1.8c0-3.5-1.8-5.7-5.3-5.7s-5.3 2.3-5.3 5.7v1.8c0 3.5 1.8 5.7 5.3 5.7 3.5.1 5.3-2.2 5.3-5.7zm-2.1 0c0 2.4-1 3.9-3.2 3.9s-3.2-1.5-3.2-3.9v-1.8c0-2.4 1-3.9 3.2-3.9s3.2 1.5 3.2 3.9v1.8zM154.4 13.1V12c0-.3-.2-.4-.5-.4-2 0-3.6.1-4.9.7-.3.1-.4.3-.4.5v11.4c0 .3.2.5.4.5h1.2c.3 0 .4-.2.4-.5V13.7c.9-.2 1.7-.2 3.3-.2.5 0 .5-.1.5-.4zM165 24.5c0-.1 0-.2-.1-.2l-5.3-6.3 5.2-5.6c.1-.1.1-.2.1-.3 0-.1-.1-.3-.4-.3H163c-.2 0-.3 0-.5.2l-4.7 5.3V7.6c0-.3-.2-.5-.5-.5h-1.1c-.3 0-.5.2-.5.5v16.8c0 .3.2.5.5.5h1.1c.3 0 .5-.2.5-.5v-5.6l4.7 5.8c.2.2.3.3.5.3h1.7c.2-.1.3-.2.3-.4z"/><path fill="#BFD1DA" d="M61.5 24.2V9.3c0-.3-.2-.5-.5-.5h-2.2c-.3 0-.5.2-.5.5v14.9c0 .3.2.5.5.5H61c.3-.1.5-.3.5-.5zm-11.4.4V8.9c-1.2 0-3.1.8-3.1 2.5v10.7c-.7.1-1.7.2-2.3.2-2 0-2.5-1.4-2.5-3.3v-7.7c-.1-1.9-2.2-2.4-3.1-2.4v10c0 3.6 1.8 5.9 5.6 5.9.6 0 1.8-.2 2.3-.3v.2c.5 3.1-3.3 1.9-5.3 1.7-1.5 0-2.5 1.2-2.8 2.6.9.3 3.7.6 5.7.8 3.6.1 5.5-1.9 5.5-5.2zm5.7-.4V9.3c0-.3-.2-.5-.5-.5h-2.2c-.3 0-.5.2-.5.5v14.9c0 .3.2.5.5.5h2.2c.3-.1.5-.3.5-.5zM54.2 4.6c.9 0 1.6.7 1.6 1.6 0 .9-.7 1.6-1.6 1.6-.9 0-1.6-.7-1.6-1.6 0-.8.7-1.6 1.6-1.6zm5.8 0c.9 0 1.6.7 1.6 1.6 0 .9-.7 1.6-1.6 1.6-.9 0-1.6-.7-1.6-1.6 0-.8.7-1.6 1.6-1.6z"/><g><g clip-path="url(#a)" transform="matrix(.5058 0 0 -.5058 -72.889 177.036)"><path d="M183.995 331.137c-3.088 8.913 5.938 18.468 13.363 18.753 4.449-2.321 8.269-8.416 8.078-16.687-.583-10.19-7.793-18.972-15.64-27.063-.437 9.866-2.531 16.155-5.801 24.997" fill="#7cc734" fill-rule="evenodd"/><path d="M166.49 282.874c-1.243 9.949 2.796 18.436 6.805 23.611 1.905 2.43 3.37 4.647 4.484 6.689 2.106-.912 7.767-3.882 10.886-8.704-.453-6.995-5.622-19.725-22.176-21.596" fill="#3e7fca" fill-rule="evenodd"/><path d="M160.234 320.661c-13.175 3.685-16.425 15.26-15.837 23.043 12.794 5.186 26.563-.126 34.513-11.198 5.574-7.76 9.064-17.709 9.772-26.392-3.824 5.047-8.654 7.971-14.806 10.261-4.208 1.565-8.095 2.602-13.642 4.286" fill="#eb6e2e" fill-rule="evenodd"/></g></g></svg>