<?xml version="1.0" encoding="utf-8"?>
<!-- Generator: Adobe Illustrator 25.2.3, SVG Export Plug-In . SVG Version: 6.00 Build 0)  -->
<svg version="1.1" id="Layer_1" xmlns:serif="http://www.serif.com/"
	 xmlns="http://www.w3.org/2000/svg" xmlns:xlink="http://www.w3.org/1999/xlink" x="0px" y="0px" viewBox="0 0 1000 216.495"
	 style="enable-background:new 0 0 1000 216.495;" xml:space="preserve">
<style type="text/css">
	.st0{fill:#40B3D8;}
	.st1{fill:#83C933;}
	.st2{fill:#FFFFFF;}
	.st3{fill-rule:evenodd;clip-rule:evenodd;fill:#F18A2A;}
	.st4{fill:#7FB93C;}
</style>
<g id="Слой-1" serif:id="–°–ї–Њ–є 1">
	<g>
		<path class="st0" d="M130.275,137.619c-1.461-19.284-7.681-31.784-10.71-38.869c-3.027-7.083-7.682-13.714-7.685-13.703
			c-0.009,0.03-4.191,22.566-11.71,38.871c-1.255,2.723-2.922,6.123-4.604,8.861l0,0c-5.191,9.165-12.723,17.933-17.212,26.82
			c-4.451,8.808-5.277,17.531-4.863,27.448c0.417,9.972,2.721,19.753,4.933,29.448c8.338-1.799,15.595-4.877,21.873-8.812
			c16.521-10.358,26.504-26.924,29.341-44.772c0,0,0.138-0.725,0.2-1.609C131.117,147.508,130.694,143.156,130.275,137.619z"/>
		<path class="st1" d="M130.275,137.619c-1.461-19.284-7.681-31.784-10.71-38.869c-3.027-7.083-7.682-13.714-7.685-13.703
			c0,0-0.001,0.005-0.001,0.005c0-0.003,0.001-0.006,0.001-0.006l-1.111-1.652C86.405,49.193,39.68,32.117,0.202,47.944
			c-1.901,23.973,9.213,65.22,49.76,76.725c16.392,5.043,29.518,3.735,45.605,8.109c-0.001,0-0.001,0.001-0.001,0.001
			c0,0,16.352,5.699,25.865,14.245c4.279,3.843,8.564,8.901,8.349,14.917C131.135,147.624,130.701,143.244,130.275,137.619z"/>
		<g transform="matrix(1,0,0,1,843.83,480.501)">
			<path class="st2" d="M156.139-316.254c-0.1-0.618-0.403-1.121-0.759-1.621c-0.023-0.032-0.044-0.067-0.065-0.1
				c-0.016-0.019-0.032-0.041-0.048-0.061c-0.8-1.04-1.73-1.985-2.572-2.995c-0.801-0.948-1.601-1.901-2.401-2.852
				c-0.961-1.142-1.922-2.283-2.884-3.427c-1.073-1.277-2.149-2.558-3.227-3.836c-1.144-1.36-2.287-2.716-3.429-4.077
				c-1.165-1.383-2.33-2.767-3.491-4.149l-3.413-4.056c-1.066-1.268-2.13-2.533-3.192-3.798c-0.947-1.121-1.888-2.244-2.834-3.365
				c-0.777-0.923-1.552-1.847-2.328-2.772c-0.564-0.667-1.127-1.333-1.687-2.002l-0.903-1.076c-0.006-0.007-0.119-0.134-0.118-0.134
				c0.018-0.02,0.036-0.039,0.055-0.058l0.148-0.161c0.083-0.086,0.163-0.176,0.246-0.265c0.11-0.121,0.223-0.241,0.334-0.362
				c0.141-0.15,0.282-0.301,0.423-0.452c0.166-0.179,0.331-0.359,0.497-0.538c0.192-0.206,0.385-0.412,0.577-0.619
				c0.214-0.233,0.432-0.464,0.644-0.695l0.711-0.768c0.259-0.276,0.518-0.554,0.775-0.832c0.275-0.297,0.553-0.593,0.826-0.89
				c0.294-0.317,0.586-0.633,0.88-0.948l0.925-0.996c0.324-0.348,0.647-0.695,0.967-1.041c0.336-0.361,0.669-0.72,1.005-1.08
				c0.343-0.371,0.688-0.743,1.035-1.115c0.353-0.381,0.707-0.759,1.059-1.143c0.362-0.39,0.723-0.777,1.083-1.166
				c0.368-0.395,0.734-0.791,1.101-1.185c0.374-0.4,0.744-0.8,1.115-1.197c0.372-0.404,0.745-0.806,1.118-1.21
				c0.375-0.401,0.75-0.804,1.125-1.208c0.371-0.401,0.745-0.804,1.118-1.207c0.371-0.398,0.745-0.797,1.115-1.198
				c0.368-0.394,0.734-0.791,1.102-1.186c0.361-0.39,0.723-0.777,1.085-1.168c0.353-0.382,0.707-0.762,1.06-1.146
				c0.345-0.372,0.694-0.745,1.037-1.117l1.005-1.082c0.323-0.348,0.649-0.694,0.969-1.044c0.31-0.331,0.619-0.666,0.929-0.999
				l0.884-0.948c0.275-0.299,0.551-0.599,0.832-0.897c0.259-0.277,0.515-0.554,0.774-0.836c0.238-0.256,0.477-0.511,0.715-0.769
				c0.218-0.233,0.433-0.465,0.651-0.701c0.192-0.208,0.385-0.416,0.58-0.624c0.167-0.182,0.334-0.362,0.506-0.544
				c0.491-0.534,1.043-1.026,1.437-1.647c0.445-0.701,0.598-1.585,0.15-2.327c-0.298-0.493-0.794-0.82-1.344-0.968
				c-0.285-0.074-0.58-0.106-0.871-0.106h-9.304c-1.237,0-1.86,0-3.097,1.243l-29.142,32.86v-60.144c0-1.858-1.242-3.102-3.1-3.102
				h-6.823c-1.86,0-3.099,1.243-3.099,3.102v104.169c0,1.858,1.239,3.097,3.099,3.097h6.823c1.858,0,3.1-1.239,3.1-3.097v-34.723
				l29.142,35.96c1.238,1.243,1.86,1.86,3.097,1.86h9.658c0.769,0,1.57-0.283,2.136-0.814
				C156.113-315.035,156.236-315.656,156.139-316.254 M90.549-386.959v-6.818c0-1.863-1.242-2.484-3.1-2.484
				c-12.404,0-21.834,0.302-29.894,4.023c-2.024,0.964-2.971,2.178-2.971,3.42v70.683c0,1.86,1.242,3.1,2.479,3.1h7.441
				c1.863,0,2.481-1.24,2.481-3.1v-65.102c5.58-1.243,10.541-1.243,20.464-1.243C90.549-384.48,90.549-385.099,90.549-386.959
				 M31.644-349.136c0,14.88-6.202,24.183-19.843,24.183c-13.641,0-19.84-9.304-19.84-24.183v-11.162
				c0-14.878,6.199-24.182,19.84-24.182c13.641,0,19.843,9.303,19.843,24.182V-349.136z M44.666-349.136v-11.162
				c0-21.701-11.163-35.342-32.865-35.342c-21.703,0-32.86,14.262-32.86,35.342v11.162c0,21.702,11.158,35.341,32.86,35.341
				C33.503-313.174,44.666-327.433,44.666-349.136 M-30.362-346.034v-45.885c0-1.858-1.238-3.102-3.1-3.102h-6.408
				c-1.858,0-3.1,1.243-3.1,3.102v45.885c0,16.119-6.613,21.698-18.392,21.698c-3.723,0-7.855-0.617-12.194-1.858v-65.725
				c0-1.858-1.239-3.102-3.102-3.102h-6.616c-1.86,0-3.097,1.243-3.097,3.102v65.725c-4.342,1.242-8.475,1.858-12.193,1.858
				c-12.401,0-18.396-5.579-18.396-21.698v-45.885c0-1.858-1.238-3.102-3.097-3.102h-6.411c-1.86,0-3.097,1.243-3.097,3.102v45.885
				c0,26.04,14.258,32.86,29.759,32.86c7.444,0,13.642-1.238,19.222-3.718c6.203,2.481,11.783,3.718,19.223,3.718
				C-44.621-313.174-30.362-319.994-30.362-346.034 M-150.03-360.298h-39.064v-1.24c0-15.501,6.82-22.942,19.843-22.942
				c13.022,0,19.22,6.202,19.22,22.942V-360.298z M-137.01-353.478v-8.06c0-20.461-11.159-34.102-32.241-34.102
				c-21.083,0-32.862,13.02-32.862,34.102v13.021c0,27.282,16.121,35.342,33.48,35.342c9.924,0,17.983-0.621,26.042-2.481
				c2.484-0.619,3.1-1.237,3.1-3.1v-4.96c0-1.237-1.238-1.86-2.479-1.86h-0.621c-6.82,1.239-17.361,1.86-26.042,1.86
				c-13.641,0-20.461-6.2-20.461-23.561v-3.1h48.987C-138.248-350.376-137.01-351.615-137.01-353.478 M-211.414-317.513v-50.583
				c0-7.348-0.336-16.488-6.347-21.681c-1.479-1.277-3.182-2.279-4.975-3.058c-2.194-0.954-4.519-1.591-6.865-2.046
				c-1.777-0.348-3.573-0.587-5.376-0.759h-3.1c-8.678,0-14.882,1.24-19.219,4.96c-4.343-4.341-10.541-4.96-19.222-4.96h-3.102
				c-17.359,0-26.04,10.541-26.04,25.424v52.703c0,1.858,1.237,3.102,2.478,3.102h7.441c1.861,0,2.481-1.243,2.481-3.102v-52.703
				c0-12.404,5.58-14.264,13.02-14.264h3.1c9.304,0,12.404,1.86,12.404,9.922v57.045c0,1.858,1.238,3.102,2.481,3.102h7.439
				c1.858,0,2.481-1.243,2.481-3.102v-57.045c0-8.062,3.1-9.922,12.399-9.922h3.1c8.062,0,13.02,1.86,13.02,14.264v52.703
				c0,1.858,1.243,3.102,2.481,3.102h4.96C-212.033-314.412-211.414-315.655-211.414-317.513 M-327.984-325.575
				c-4.341,0.622-11.159,1.239-17.359,1.239c-14.264,0-19.223-9.92-19.223-25.421v-9.92c0-15.499,4.342-25.422,19.223-25.422
				c6.2,0,13.019,0.62,17.359,1.24V-325.575z M-314.964-319.994v-68.823c0-1.863-0.617-2.481-3.097-3.102
				c-8.06-1.858-17.985-3.102-27.282-3.102c-21.704,0-32.244,14.264-32.244,35.963v9.922c0,21.702,9.92,35.962,32.244,35.962
				c8.681,0,19.222-1.238,27.282-3.1C-315.58-317.513-314.964-318.134-314.964-319.994 M-378.826-386.959v-6.818
				c0-1.863-1.242-2.484-3.1-2.484c-12.404,0-22.323,0.621-30.384,4.342c-1.858,0.621-2.481,1.86-2.481,3.102v70.683
				c0,1.86,1.242,3.1,2.481,3.1h7.439c1.863,0,2.481-1.24,2.481-3.1v-65.102c5.581-1.243,10.541-1.243,20.464-1.243
				C-378.826-384.48-378.826-385.099-378.826-386.959 M-425.331-416.722v-4.96c0-1.238-0.532-1.965-3.1-2.481
				c-2.481-0.62-8.06-0.62-13.02-0.62c-13.641,0-22.319,4.96-22.319,20.463v87.427c0,1.71,1.387,3.097,3.097,3.097h6.823
				c1.713,0,3.1-1.387,3.1-3.097v-67.587h22.94c1.86,0,2.479-1.239,2.479-2.479v-4.96c0-1.858-1.237-2.481-2.479-2.481h-23.561
				v-9.92c0-8.681,1.858-9.922,9.92-9.922h11.688c1.022,0,2.212-0.047,3.03-0.378C-425.781-415.003-425.331-415.553-425.331-416.722
				"/>
		</g>
		<g transform="matrix(1,0,0,1,396.196,576.03)">
			<path class="st0" d="M-47.14-535.193c5.58,0,9.919,4.341,9.919,9.922c0,5.579-4.339,9.921-9.919,9.921
				c-5.582,0-9.922-4.342-9.922-9.921C-57.062-530.233-52.723-535.193-47.14-535.193 M-83.104-535.193
				c5.578,0,9.922,4.341,9.922,9.922c0,5.579-4.343,9.921-9.922,9.921c-5.579,0-9.923-4.342-9.923-9.921
				C-93.027-530.233-88.683-535.193-83.104-535.193 M-73.182-413.663v-92.387c0-1.858-1.243-3.1-3.103-3.1h-13.641
				c-1.858,0-3.1,1.242-3.1,3.1v92.387c0,1.86,1.242,3.1,3.1,3.1h13.641C-74.426-411.184-73.182-412.421-73.182-413.663
				 M-108.528-411.184v-97.346c-7.439,0-19.222,4.96-19.222,15.501v66.344c-4.338,0.621-10.541,1.243-14.258,1.243
				c-12.404,0-15.501-8.683-15.501-20.464v-47.745c-0.621-11.78-13.643-14.88-19.222-14.88v62.006
				c0,22.319,11.161,36.581,34.723,36.581c3.717,0,11.161-1.242,14.258-1.861l0.164,1.608c0.858,19.313-20.625,11.415-33.024,10.173
				c-9.302,0-15.501,7.441-17.364,16.122c5.581,1.86,22.944,3.721,35.344,4.96C-120.306-378.321-108.528-390.72-108.528-411.184
				 M-37.84-413.663v-92.387c0-1.858-1.24-3.1-3.1-3.1h-13.641c-1.86,0-3.102,1.242-3.102,3.1v92.387c0,1.86,1.242,3.1,3.102,3.1
				h13.641C-39.08-411.184-37.84-412.421-37.84-413.663"/>
		</g>
		<g transform="matrix(1,0,0,1,233.564,496.875)">
			<path class="st3" d="M-120.995-431.898c-5.761-16.855-3.32-28.149,7.22-43.866c5.027-7.499,13.706-16.197,21.313-21.111
				c30.691,19.232,42.039,55.054,30.752,88.323c-8.214,24.207-15.921,34.357-35.408,59.263c2.271-26.674-7.117-45.167-16.334-65.715
				C-115.798-420.232-119.042-426.183-120.995-431.898"/>
		</g>
		<g transform="matrix(1,0,0,1,245.403,498.558)">
			<path class="st4" d="M-115.623-336.617c0.215-6.016-4.07-11.074-8.349-14.917c-9.513-8.546-25.864-14.245-25.864-14.245
				c1.682-2.738,3.349-6.138,4.604-8.861c7.519-16.305,11.701-38.841,11.71-38.871c0.003-0.01,4.657,6.62,7.685,13.703
				c3.029,7.085,9.248,19.584,10.71,38.869C-114.702-355.314-114.268-350.934-115.623-336.617z"/>
		</g>
	</g>
</g>
</svg>
